<?xml version="1.0" standalone="no"?>
<!DOCTYPE svg PUBLIC "-//W3C//DTD SVG 20010904//EN"
 "http://www.w3.org/TR/2001/REC-SVG-20010904/DTD/svg10.dtd">
<svg version="1.0" xmlns="http://www.w3.org/2000/svg"
 width="73.000000pt" height="121.000000pt" viewBox="0 0 73.000000 121.000000"
 preserveAspectRatio="xMidYMid meet">

<g transform="translate(0.000000,121.000000) scale(0.100000,-0.100000)"
fill="#000000" stroke="none">
<path d="M348 1101 c-10 -20 -26 -61 -37 -91 -43 -124 -85 -220 -139 -315 -82
-146 -99 -185 -112 -253 -26 -145 35 -281 154 -345 59 -32 212 -32 272 0 88
47 144 143 159 270 9 84 -11 152 -90 288 -70 123 -126 257 -151 361 -9 38 -22
81 -28 96 l-11 27 -17 -38z"/>
</g>
</svg>
